<svg width="150" height="33" viewBox="0 0 150 33" fill="none" xmlns="http://www.w3.org/2000/svg">
<path d="M12.3287 28.6236H9.32506C7.79778 28.6236 6.42324 28.2758 5.20142 27.58C3.93718 26.8673 2.93597 25.76 2.19778 24.2582C1.76506 23.4776 1.43415 22.6291 1.20506 21.7127C1.06081 21.0509 0.988693 20.3594 0.988693 19.6382C0.988693 17.2539 1.68869 14.6703 3.08869 11.8873L7.74688 14.2291C6.72021 16.3333 6.20687 18.1194 6.20687 19.5873C6.20687 20.4018 6.36809 21.0806 6.69051 21.6236C6.90263 21.9545 7.15718 22.2091 7.45415 22.3873C7.96324 22.6842 8.58687 22.8327 9.32506 22.8327H12.3287C13.7711 22.8327 14.7384 22.5739 15.2305 22.0564C15.5784 21.6406 15.7523 20.8982 15.7523 19.8291V11.9255H20.9578V14.9164C20.9578 15.2048 21.0384 15.4594 21.1996 15.68C21.3608 15.9006 21.696 16.0109 22.2051 16.0109C22.5699 16.0109 22.8541 15.9218 23.0578 15.7436C23.2699 15.557 23.376 15.2812 23.376 14.9164V11.9255H28.5941V14.9164C28.5941 15.2303 28.6832 15.4891 28.8614 15.6927C29.0481 15.8964 29.2772 15.9982 29.5487 15.9982C29.8881 15.9982 30.1511 15.9048 30.3378 15.7182C30.5329 15.5315 30.6305 15.3491 30.6305 15.1709C30.6305 15.0861 30.5372 14.5558 30.3505 13.58L29.956 11.4673L35.0596 10.4109L35.416 12.2055C35.6451 13.4358 35.7808 14.2758 35.8232 14.7255C35.8402 14.9376 35.8487 15.1455 35.8487 15.3491C35.8487 16.3418 35.7045 17.2285 35.416 18.0091C35.136 18.7812 34.7796 19.4261 34.3469 19.9436C33.1845 21.14 31.6954 21.7594 29.8796 21.8018V21.8145C28.2845 21.8145 26.9651 21.4539 25.9214 20.7327C24.8014 21.4539 23.5966 21.8145 22.3069 21.8145C21.8148 21.8145 21.3566 21.7806 20.9323 21.7127C20.8051 22.977 20.3469 24.1988 19.5578 25.3782C18.7687 26.5576 17.6699 27.4315 16.2614 28C15.1584 28.4158 13.8475 28.6236 12.3287 28.6236ZM38.9218 14.9545L38.0564 3.39818L43.2491 3.01636L44.1146 14.56L38.9218 14.9545ZM53.9655 21.8018H53.5582C51.8952 21.8018 50.4994 21.3182 49.3709 20.3509C48.0049 21.3182 46.1085 21.8018 43.6818 21.8018H38.1964V15.9855H43.6818C44.5643 15.9855 45.2473 15.9218 45.7309 15.7945C46.2146 15.6673 46.5624 15.4424 46.7746 15.12C46.9867 14.7976 47.114 14.3479 47.1564 13.7709C47.1988 13.1939 47.22 12.4515 47.22 11.5436V2.82546H52.4255V14.5218C52.4255 15.0224 52.4933 15.3915 52.6291 15.6291C52.7649 15.8582 53.0746 15.9727 53.5582 15.9727H53.9655V21.8018ZM58.6189 21.7764H52.968V15.9727H58.6189C58.9328 15.9727 59.1449 15.9345 59.2552 15.8582C59.3655 15.7733 59.4207 15.6461 59.4207 15.4764C59.4207 15.3491 59.4037 15.2006 59.3698 15.0309L58.7334 11.7218L63.7734 10.1945L64.4862 14.0636C64.6134 14.7255 64.6771 15.3364 64.6771 15.8964C64.6771 16.677 64.5371 17.4873 64.2571 18.3273C64.0704 18.8873 63.8286 19.3497 63.5316 19.7145C62.9377 20.4867 62.1528 21.0594 61.1771 21.4327C60.4558 21.6618 59.6031 21.7764 58.6189 21.7764ZM59.5989 32.4036L57.0534 29.8455L59.5989 27.3L62.1571 29.8455L59.5989 32.4036ZM56.608 28.7L53.8207 25.9L56.608 23.1127L59.408 25.9L56.608 28.7ZM62.5771 28.7L59.7898 25.9L62.5771 23.1127L65.3771 25.9L62.5771 28.7Z" fill="#677CAF"/>
<path d="M85.6506 28.6236H84.1488C82.7912 28.6236 81.6161 28.4497 80.6233 28.1018C79.6391 27.7539 78.8076 27.283 78.1288 26.6891C77.4585 26.1036 76.9239 25.4418 76.5252 24.7036C76.1264 23.9655 75.8379 23.1891 75.6597 22.3745C75.49 21.5685 75.4052 20.7836 75.4052 20.02C75.4052 17.9327 76.0076 15.5442 77.2124 12.8545L81.9724 14.9927C81.1579 16.7915 80.7124 18.3315 80.6361 19.6127L80.6106 20.1345C80.6106 20.3891 80.6488 20.6733 80.7252 20.9873C80.8015 21.2927 80.9542 21.5812 81.1833 21.8527C81.4209 22.1327 81.773 22.3618 82.2397 22.54C82.7149 22.7182 83.3512 22.8073 84.1488 22.8073H85.6506C86.4821 22.8073 87.127 22.7352 87.5852 22.5909C88.0518 22.4467 88.3912 22.26 88.6033 22.0309C88.8239 21.8018 88.9597 21.5558 89.0106 21.2927C89.0615 21.0382 89.087 20.7921 89.087 20.5545V11.9255H94.2924V20.3382C94.2924 21.7297 94.11 22.9091 93.7452 23.8764C93.3803 24.8521 92.8924 25.6497 92.2815 26.2691C91.6791 26.8885 91.0003 27.3679 90.2452 27.7073C89.4985 28.0552 88.7264 28.2927 87.9288 28.42C87.1312 28.5558 86.3718 28.6236 85.6506 28.6236ZM85.0906 13.7455L82.1252 10.78L85.0906 7.80182L88.0688 10.78L85.0906 13.7455ZM103.393 21.8018H102.261C101.514 21.8018 100.856 21.717 100.288 21.5473C99.7279 21.3776 99.2485 21.1655 98.8497 20.9109C98.4509 20.6564 98.12 20.4018 97.857 20.1473C97.6024 19.8927 97.3479 19.5661 97.0933 19.1673C96.8473 18.7685 96.6351 18.2891 96.457 17.7291C96.2873 17.1606 96.2024 16.503 96.2024 15.7564L96.2151 2.83818H101.421V15.1582C101.421 15.4552 101.518 15.6673 101.713 15.7945C101.908 15.9133 102.082 15.9727 102.235 15.9727H103.393V21.8018ZM119.774 21.7891C118.188 21.7891 116.873 21.42 115.829 20.6818C115.311 21.0297 114.781 21.3012 114.238 21.4964C113.695 21.6915 113.101 21.7891 112.456 21.7891C111.557 21.7891 110.819 21.6788 110.242 21.4582C109.673 21.2461 109.177 20.9873 108.753 20.6818C108.439 21.0212 108.104 21.2673 107.747 21.42C107.399 21.5812 106.86 21.683 106.131 21.7255C105.401 21.7679 104.268 21.7891 102.733 21.7891V15.9727H104.705C105.257 15.9727 105.643 15.8794 105.864 15.6927C106.093 15.4976 106.207 15.2261 106.207 14.8782V11.9255H111.425V14.9418C111.425 15.2558 111.502 15.5145 111.654 15.7182C111.816 15.9218 112.032 16.0279 112.304 16.0364C112.957 16.0364 113.284 15.68 113.284 14.9673V11.9255H118.489V14.9418C118.489 15.2558 118.582 15.5145 118.769 15.7182C118.956 15.9218 119.185 16.0236 119.456 16.0236C119.804 16.0236 120.067 15.9303 120.245 15.7436C120.432 15.5485 120.525 15.3618 120.525 15.1836C120.525 15.1073 120.436 14.5812 120.258 13.6055L119.864 11.4927L124.967 10.4364L125.082 10.9582C125.277 11.9339 125.442 12.8376 125.578 13.6691C125.688 14.3394 125.744 14.8867 125.744 15.3109C125.744 15.9982 125.667 16.643 125.514 17.2455C125.362 17.8479 125.171 18.3782 124.942 18.8364C124.713 19.2861 124.479 19.6382 124.242 19.8927C123.088 21.0976 121.599 21.7297 119.774 21.7891ZM115.931 5.32L113.385 2.77455L115.931 0.216363L118.489 2.77455L115.931 5.32ZM112.94 9.50727L110.153 6.72L112.94 3.92L115.74 6.72L112.94 9.50727ZM118.909 9.50727L116.122 6.72L118.909 3.92L121.709 6.72L118.909 9.50727ZM134.975 21.8018H133.843C133.096 21.8018 132.438 21.717 131.87 21.5473C131.31 21.3776 130.831 21.1655 130.432 20.9109C130.033 20.6564 129.702 20.4018 129.439 20.1473C129.184 19.8927 128.93 19.5661 128.675 19.1673C128.429 18.7685 128.217 18.2891 128.039 17.7291C127.869 17.1606 127.784 16.503 127.784 15.7564L127.797 2.83818H133.003V15.1582C133.003 15.4552 133.1 15.6673 133.295 15.7945C133.491 15.9133 133.664 15.9727 133.817 15.9727H134.975V21.8018ZM136.16 9.90182L136.695 5.48545L147.831 0.407272L149.995 5.15455L142.371 8.64182C142.575 8.85394 142.795 9.07879 143.033 9.31636C143.584 9.85939 144.204 10.4915 144.891 11.2127C145.018 11.3485 145.141 11.4758 145.26 11.5945C145.735 12.0867 146.143 12.5364 146.482 12.9436C146.821 13.3424 147.097 13.7624 147.309 14.2036C147.589 14.8061 147.767 15.3576 147.844 15.8582C147.895 16.2315 147.92 16.5879 147.92 16.9273C147.92 17.0545 147.912 17.2624 147.895 17.5509C147.878 17.8394 147.763 18.2636 147.551 18.8236C147.39 19.2394 147.084 19.6806 146.635 20.1473C146.185 20.6055 145.527 20.9915 144.662 21.3055C143.72 21.6279 142.524 21.7891 141.073 21.7891H134.315V15.9727H141.073C141.327 15.9727 141.629 15.9685 141.976 15.96C142.324 15.943 142.583 15.9261 142.753 15.9091C141.964 14.9927 141.09 14.1018 140.131 13.2364C139.172 12.3624 138.315 11.6242 137.56 11.0218C136.813 10.4109 136.359 10.0461 136.198 9.92727L136.16 9.90182Z" fill="#BA8469"/>
</svg>
